<svg width="18" height="18" viewBox="0 0 18 18" fill="none" xmlns="http://www.w3.org/2000/svg">
<path d="M13.6846 11.9075C13.0965 11.3269 12.3624 11.3269 11.7781 11.9075C11.3323 12.3495 10.8866 12.7915 10.4484 13.2409C10.3285 13.3645 10.2274 13.3908 10.0813 13.3084C9.79288 13.151 9.48574 13.0237 9.20857 12.8514C7.91633 12.0386 6.83384 10.9936 5.87496 9.81743C5.39926 9.23311 4.97601 8.60759 4.6801 7.90341C4.62017 7.76108 4.63141 7.66744 4.74752 7.55132C5.19325 7.12058 5.62774 6.67859 6.06598 6.23661C6.67652 5.62232 6.67652 4.90316 6.06224 4.28513C5.71389 3.93304 5.36555 3.58845 5.01721 3.23636C4.65763 2.87678 4.30179 2.51345 3.93847 2.15762C3.3504 1.58453 2.61626 1.58453 2.03194 2.16136C1.58246 2.60335 1.15172 3.05657 0.694749 3.49106C0.271493 3.89184 0.0579922 4.38252 0.0130446 4.9556C-0.0581224 5.88826 0.170361 6.76849 0.492485 7.62624C1.15172 9.40167 2.15555 10.9786 3.37288 12.4244C5.01721 14.3796 6.97992 15.9266 9.27599 17.0428C10.3098 17.5447 11.381 17.9305 12.5459 17.9941C13.3475 18.0391 14.0442 17.8368 14.6023 17.2113C14.9843 16.7843 15.4151 16.3948 15.8196 15.9865C16.4189 15.3797 16.4227 14.6455 15.8271 14.0462C15.1154 13.3308 14.4 12.6192 13.6846 11.9075Z" fill="currentColor"/>
<path d="M12.9694 8.92199L14.3515 8.68601C14.1342 7.41625 13.5349 6.26634 12.6248 5.3524C11.6621 4.38978 10.4448 3.78298 9.10386 3.5957L8.90909 4.98533C9.94663 5.13141 10.8905 5.59961 11.6359 6.345C12.3401 7.04917 12.8008 7.94063 12.9694 8.92199Z" fill="currentColor"/>
<path d="M15.1306 2.9141C13.535 1.31846 11.5161 0.310887 9.28745 0L9.09268 1.38963C11.0179 1.65931 12.7634 2.53205 14.1418 3.90669C15.449 5.21392 16.3068 6.86574 16.6177 8.68237L17.9998 8.4464C17.6365 6.34135 16.6439 4.43108 15.1306 2.9141Z" fill="currentColor"/>
</svg>
