<svg width="24" height="24" viewBox="0 0 24 24" xmlns="http://www.w3.org/2000/svg">
<path d="M23.8631 6.49486L17.3744 0.141469C17.2821 0.0510937 17.1546 0 17.0215 0H7.3506C6.2683 0 5.38777 0.829406 5.38777 1.84884V8.3077H1.46852C0.658771 8.3077 0 8.92828 0 9.69112V16.6166C0 17.3794 0.658771 18 1.46852 18H5.38777V22.1544C5.38777 23.172 6.2683 24 7.3506 24H22.0372C23.1195 24 24 23.1725 24 22.1554V6.81492C24 6.69558 23.9509 6.58088 23.8631 6.49486ZM17.1429 1.24598L22.4695 6.46153H17.1429V1.24598ZM1.46852 17.0769C1.1989 17.0769 0.979625 16.8705 0.979625 16.6166V9.69112C0.979625 9.4373 1.19895 9.23077 1.46852 9.23077H14.6948C14.9644 9.23077 15.1837 9.4373 15.1837 9.69112V16.6166C15.1837 16.8705 14.9643 17.0769 14.6948 17.0769H1.46852ZM23.0204 22.1554C23.0204 22.6635 22.5793 23.0769 22.0371 23.0769H7.3506C6.80843 23.0769 6.36734 22.6631 6.36734 22.1544V18H14.6948C15.5045 18 16.1633 17.3794 16.1633 16.6166V9.69112C16.1633 8.92828 15.5045 8.3077 14.6948 8.3077H6.36734V1.84884C6.36734 1.33833 6.80843 0.923062 7.3506 0.923062H16.1632V6.92306C16.1632 7.17797 16.3826 7.38459 16.653 7.38459H23.0204V22.1554Z" fill="currentColor"/>
<path d="M5.85559 11.7137C5.69297 11.5145 5.49111 11.3851 5.25004 11.3256C5.09315 11.2859 4.75643 11.2661 4.23983 11.2661H2.87662V15.2307H3.72611V13.7352H4.28002C4.6646 13.7352 4.95829 13.7162 5.1611 13.6783C5.31033 13.6477 5.45718 13.5851 5.60164 13.4904C5.7461 13.3957 5.86519 13.2655 5.95896 13.0996C6.05273 12.9338 6.09959 12.7291 6.09959 12.4858C6.09954 12.1702 6.0182 11.9129 5.85559 11.7137ZM5.12807 12.8049C5.064 12.8932 4.9755 12.9581 4.86258 12.9996C4.74966 13.0411 4.52586 13.0618 4.19103 13.0618H3.72611V11.9368H4.13651C4.44263 11.9368 4.64639 11.9458 4.74777 11.9638C4.88551 11.9873 4.99938 12.0459 5.08927 12.1396C5.17921 12.2334 5.22418 12.3524 5.22418 12.4966C5.22423 12.6138 5.19214 12.7165 5.12807 12.8049Z" fill="currentColor"/>
<path d="M10.1834 12.3492C10.0915 12.0959 9.95758 11.8818 9.78158 11.7069C9.60559 11.532 9.39412 11.4103 9.14734 11.3418C8.96368 11.2913 8.69675 11.2661 8.34664 11.2661H6.79401V15.2307H8.39256C8.70635 15.2307 8.95696 15.2027 9.14445 15.1468C9.39512 15.0711 9.59409 14.9656 9.74139 14.8304C9.93654 14.6519 10.0867 14.4185 10.192 14.13C10.2781 13.8938 10.3211 13.6125 10.3211 13.2862C10.3211 12.9148 10.2752 12.6025 10.1834 12.3492ZM9.35681 13.9772C9.29941 14.1548 9.22529 14.2824 9.1344 14.3599C9.04352 14.4374 8.92921 14.4924 8.79146 14.5248C8.68625 14.5501 8.51498 14.5627 8.27775 14.5627H7.6435V11.9368H8.02519C8.37147 11.9368 8.60397 11.9494 8.72257 11.9747C8.88135 12.0071 9.01243 12.0693 9.11575 12.1613C9.21907 12.2533 9.29941 12.3812 9.35681 12.5453C9.41422 12.7093 9.44292 12.9446 9.44292 13.2511C9.44292 13.5576 9.41422 13.7996 9.35681 13.9772Z" fill="currentColor"/>
<path d="M13.9315 11.9368V11.2661H11.0472V15.2307H11.8967V13.5459H13.6531V12.8752H11.8967V11.9368H13.9315Z" fill="currentColor"/>
</svg>
