<svg width="18" height="18" viewBox="0 0 18 18" xmlns="http://www.w3.org/2000/svg">
<path d="M13.6962 10.9114C13.3725 10.5704 12.982 10.388 12.5682 10.388C12.1578 10.388 11.764 10.567 11.4269 10.9081L10.3724 11.9718C10.2856 11.9245 10.1988 11.8806 10.1154 11.8367C9.99527 11.7759 9.88181 11.7185 9.78503 11.6577C8.79722 11.0229 7.89952 10.1955 7.03853 9.12505C6.62138 8.5915 6.34106 8.14237 6.13749 7.68648C6.41114 7.43322 6.66476 7.16982 6.91171 6.91655C7.00516 6.82199 7.0986 6.72406 7.19204 6.62951C7.89285 5.92036 7.89285 5.00184 7.19204 4.29269L6.28099 3.37079C6.17753 3.26611 6.07074 3.15805 5.97063 3.04999C5.7704 2.84062 5.56016 2.6245 5.34324 2.42188C5.01953 2.0977 4.63242 1.92548 4.22528 1.92548C3.81815 1.92548 3.42436 2.0977 3.09064 2.42188C3.0873 2.42526 3.0873 2.42526 3.08397 2.42864L1.94933 3.58692C1.52217 4.01916 1.27855 4.54596 1.22516 5.15718C1.14507 6.14324 1.43206 7.06176 1.65232 7.66285C2.19294 9.13856 3.00054 10.5062 4.20526 11.9718C5.66695 13.7379 7.42564 15.1326 9.43462 16.1153C10.2022 16.4833 11.2267 16.919 12.3713 16.9932C12.4414 16.9966 12.5148 17 12.5816 17C13.3525 17 13.9999 16.7197 14.5071 16.1625C14.5105 16.1558 14.5171 16.1524 14.5205 16.1456C14.694 15.9329 14.8943 15.7404 15.1045 15.5344C15.248 15.396 15.3948 15.2508 15.5383 15.0988C15.8687 14.751 16.0422 14.3457 16.0422 13.9304C16.0422 13.5117 15.8654 13.1098 15.5283 12.7721L13.6962 10.9114ZM14.8909 14.4673C14.8876 14.4673 15.2114 14.1181 14.8909 14.4673C14.7608 14.6091 14.6273 14.7375 14.4838 14.8793C14.2669 15.0887 14.0466 15.3082 13.8397 15.5547C13.5026 15.9194 13.1055 16.0916 12.5849 16.0916C12.5349 16.0916 12.4815 16.0916 12.4314 16.0882C11.4403 16.0241 10.5192 15.6324 9.82841 15.298C7.93957 14.3728 6.28099 13.0591 4.90273 11.3943C3.76475 10.0064 3.00388 8.7232 2.49996 7.34542C2.1896 6.50457 2.07614 5.84945 2.1262 5.23147C2.15957 4.83637 2.30974 4.50881 2.58673 4.22853L3.72471 3.077C3.88823 2.92166 4.06176 2.83724 4.23196 2.83724C4.4422 2.83724 4.6124 2.96556 4.71919 3.07363C4.72252 3.077 4.72586 3.08038 4.7292 3.08376C4.93277 3.27624 5.12632 3.47548 5.32989 3.68822C5.43334 3.79628 5.54013 3.90435 5.64692 4.01578L6.55797 4.93768C6.91171 5.29563 6.91171 5.62657 6.55797 5.98452C6.46119 6.08245 6.36775 6.18038 6.27097 6.27494C5.99065 6.56535 5.72368 6.8355 5.43334 7.0989C5.42667 7.10566 5.41999 7.10903 5.41666 7.11579C5.12966 7.4062 5.18305 7.68986 5.24312 7.88234C5.24646 7.89248 5.2498 7.90261 5.25313 7.91274C5.49007 8.49357 5.82379 9.04063 6.33104 9.69237L6.33438 9.69575C7.25544 10.8439 8.22656 11.7388 9.2978 12.4243C9.43462 12.5121 9.57478 12.583 9.70827 12.6505C9.82841 12.7113 9.94187 12.7687 10.0387 12.8295C10.052 12.8363 10.0653 12.8464 10.0787 12.8532C10.1922 12.9106 10.299 12.9376 10.4091 12.9376C10.6861 12.9376 10.8596 12.762 10.9163 12.7046L12.0576 11.5497C12.1711 11.4349 12.3513 11.2964 12.5616 11.2964C12.7685 11.2964 12.9387 11.4281 13.0421 11.5429C13.0455 11.5463 13.0455 11.5463 13.0488 11.5497L14.8876 13.4103C15.2313 13.7548 15.2313 14.1094 14.8909 14.4673Z" fill="currentColor"/>
<path d="M14.8909 14.4673C14.8876 14.4673 15.2114 14.1181 14.8909 14.4673ZM14.8909 14.4673C14.7608 14.6091 14.6273 14.7375 14.4838 14.8793C14.2669 15.0887 14.0466 15.3082 13.8397 15.5547C13.5026 15.9194 13.1055 16.0916 12.5849 16.0916C12.5349 16.0916 12.4815 16.0916 12.4314 16.0882C11.4403 16.0241 10.5192 15.6324 9.82841 15.298C7.93957 14.3728 6.28099 13.0591 4.90273 11.3943C3.76475 10.0064 3.00388 8.7232 2.49996 7.34542C2.1896 6.50457 2.07614 5.84945 2.1262 5.23147C2.15957 4.83637 2.30974 4.50881 2.58673 4.22853L3.72471 3.077C3.88823 2.92166 4.06176 2.83724 4.23196 2.83724C4.4422 2.83724 4.6124 2.96556 4.71919 3.07363C4.72252 3.077 4.72586 3.08038 4.7292 3.08376C4.93277 3.27624 5.12632 3.47548 5.32989 3.68822C5.43334 3.79628 5.54013 3.90435 5.64692 4.01578L6.55797 4.93768C6.91171 5.29563 6.91171 5.62657 6.55797 5.98452C6.46119 6.08245 6.36775 6.18038 6.27097 6.27494C5.99065 6.56535 5.72368 6.8355 5.43334 7.0989C5.42667 7.10566 5.41999 7.10903 5.41666 7.11579C5.12966 7.4062 5.18305 7.68986 5.24312 7.88234C5.24646 7.89248 5.2498 7.90261 5.25313 7.91274C5.49007 8.49357 5.82379 9.04062 6.33104 9.69237L6.33438 9.69575C7.25544 10.8439 8.22656 11.7388 9.2978 12.4243C9.43462 12.5121 9.57478 12.583 9.70827 12.6505C9.82841 12.7113 9.94187 12.7687 10.0387 12.8295C10.052 12.8363 10.0653 12.8464 10.0787 12.8532C10.1922 12.9106 10.299 12.9376 10.4091 12.9376C10.6861 12.9376 10.8596 12.762 10.9163 12.7046L12.0576 11.5497C12.1711 11.4349 12.3513 11.2964 12.5616 11.2964C12.7685 11.2964 12.9387 11.4281 13.0421 11.5429C13.0455 11.5463 13.0455 11.5463 13.0488 11.5497L14.8876 13.4103C15.2313 13.7548 15.2313 14.1094 14.8909 14.4673ZM13.6962 10.9114C13.3725 10.5704 12.982 10.388 12.5682 10.388C12.1578 10.388 11.764 10.567 11.4269 10.9081L10.3724 11.9718C10.2856 11.9245 10.1988 11.8806 10.1154 11.8367C9.99527 11.7759 9.88181 11.7185 9.78503 11.6577C8.79722 11.0229 7.89952 10.1955 7.03853 9.12505C6.62138 8.5915 6.34106 8.14237 6.13749 7.68648C6.41114 7.43322 6.66476 7.16982 6.91171 6.91655C7.00516 6.82199 7.0986 6.72406 7.19204 6.62951C7.89285 5.92036 7.89285 5.00184 7.19204 4.29269L6.28099 3.37079C6.17753 3.26611 6.07074 3.15805 5.97063 3.04999C5.7704 2.84062 5.56016 2.6245 5.34324 2.42188C5.01953 2.0977 4.63242 1.92548 4.22528 1.92548C3.81815 1.92548 3.42436 2.0977 3.09064 2.42188C3.0873 2.42526 3.0873 2.42526 3.08397 2.42864L1.94933 3.58692C1.52217 4.01916 1.27855 4.54596 1.22516 5.15718C1.14507 6.14324 1.43206 7.06176 1.65232 7.66285C2.19294 9.13855 3.00054 10.5062 4.20526 11.9718C5.66695 13.7379 7.42564 15.1326 9.43462 16.1153C10.2022 16.4833 11.2267 16.919 12.3713 16.9932C12.4414 16.9966 12.5148 17 12.5816 17C13.3525 17 13.9999 16.7197 14.5071 16.1625C14.5105 16.1558 14.5171 16.1524 14.5205 16.1456C14.694 15.9329 14.8943 15.7404 15.1045 15.5344C15.248 15.396 15.3948 15.2508 15.5383 15.0988C15.8687 14.751 16.0422 14.3457 16.0422 13.9304C16.0422 13.5117 15.8654 13.1098 15.5283 12.7721L13.6962 10.9114Z" stroke="currentColor"/>
<path id="Vector_2" d="M9.7451 4.80588C10.6194 4.95447 11.4137 5.3732 12.0478 6.01481C12.6818 6.65643 13.0923 7.46013 13.2425 8.34488C13.2792 8.56776 13.4694 8.7231 13.6863 8.7231C13.713 8.7231 13.7364 8.71972 13.7631 8.71634C14.01 8.67582 14.1735 8.43944 14.1335 8.18954C13.9533 7.11906 13.4527 6.14314 12.6885 5.36983C11.9243 4.59651 10.9598 4.08998 9.90195 3.90762C9.655 3.8671 9.42473 4.03257 9.38135 4.27908C9.33797 4.5256 9.49815 4.76536 9.7451 4.80588Z" fill="currentColor" stroke="currentColor"/>
<path id="Vector_3" d="M16.9933 8.05794C16.6963 6.29519 15.8753 4.69116 14.6139 3.41469C13.3524 2.13821 11.7673 1.3075 10.0252 1.00695C9.78163 0.96305 9.55136 1.1319 9.50798 1.37841C9.46794 1.6283 9.63146 1.86131 9.87841 1.90521C11.4335 2.17198 12.8518 2.91828 13.9798 4.0563C15.1078 5.19769 15.842 6.63288 16.1056 8.20652C16.1423 8.4294 16.3325 8.58473 16.5494 8.58473C16.5761 8.58473 16.5995 8.58136 16.6262 8.57798C16.8698 8.54083 17.0367 8.30445 16.9933 8.05794Z" fill="currentColor" stroke="currentColor"/>
</svg>
