<svg width="25" height="24" viewBox="0 0 25 24" xmlns="http://www.w3.org/2000/svg">
<path d="M21.8993 13.5905C22.4961 8.56716 21.6126 5.39577 20.019 3.96135L20.0198 3.96052C17.4477 1.51092 8.76117 1.14836 5.68396 4.07054C4.30205 5.49996 3.8153 7.59783 3.76195 10.195C3.70861 12.7929 3.64527 17.6596 8.18023 18.9798H8.1844L8.18023 20.996C8.18023 20.996 8.14939 21.8128 8.67115 21.977C9.26792 22.1704 9.53797 21.7912 11.3941 19.5741C14.498 19.8433 16.8818 19.2265 17.1526 19.1365C17.7794 18.9265 21.3259 18.4572 21.8993 13.5905ZM11.7 18.1555C11.7 18.1555 9.73551 20.6051 9.12457 21.2411C8.92453 21.4478 8.70533 21.4286 8.70866 21.0185C8.70866 20.7493 8.72366 17.6713 8.72366 17.6713C4.87882 16.5694 5.10552 12.4253 5.1472 10.2575C5.18887 8.08875 5.58561 6.3126 6.75582 5.11656C9.45546 2.58528 17.071 3.15121 19.0113 4.97486C21.3834 7.07773 20.5391 13.0188 20.5441 13.2213C20.0565 17.2837 17.1827 17.5412 16.6542 17.7171C16.4284 17.7921 14.3321 18.3314 11.7 18.1555Z" fill="currentColor"/>
<path id="Vector_2" d="M12.7869 5.59229C12.466 5.59229 12.466 6.09237 12.7869 6.09654C15.2765 6.11571 17.3269 7.85102 17.3494 11.0341C17.3494 11.37 17.8412 11.3658 17.837 11.0299H17.8362C17.8095 7.60014 15.5708 5.61146 12.7869 5.59229Z" fill="currentColor"/>
<path id="Vector_3" d="M16.0617 10.5068C16.0542 10.8385 16.5451 10.8544 16.5493 10.5185C16.5901 8.6273 15.4241 7.06952 13.2328 6.90533C12.9119 6.88199 12.8786 7.38624 13.1987 7.40958C15.099 7.55377 16.1 8.85067 16.0617 10.5068Z" fill="currentColor"/>
<path id="Vector_4" d="M15.5365 12.6579C15.1247 12.4195 14.7055 12.5679 14.5321 12.8021L14.1696 13.2713C13.9854 13.5097 13.6411 13.478 13.6411 13.478C11.129 12.8137 10.4572 10.1849 10.4572 10.1849C10.4572 10.1849 10.4264 9.82904 10.6564 9.63817L11.1098 9.2631C11.3366 9.08307 11.4799 8.64966 11.249 8.22375C10.6323 7.10939 10.218 6.72516 10.0072 6.4301C9.78545 6.15255 9.45205 6.09004 9.10533 6.27758H9.09783C8.37686 6.69932 7.58756 7.48862 7.8401 8.30127C8.27101 9.15808 9.06282 11.8894 11.5866 13.9531C12.7726 14.9291 14.6496 15.9293 15.4465 16.1602L15.454 16.1718C16.2391 16.4335 17.0026 15.6134 17.4101 14.8708V14.8649C17.591 14.5057 17.531 14.1656 17.2668 13.9431C16.7984 13.4863 16.0916 12.9821 15.5365 12.6579Z" fill="currentColor"/>
<path id="Vector_5" d="M13.5762 8.76578C14.3772 8.81245 14.7656 9.23086 14.8073 10.0902C14.8223 10.4261 15.3098 10.4027 15.2948 10.0668C15.2415 8.94498 14.6564 8.31986 13.6029 8.26152C13.282 8.24235 13.252 8.74661 13.5762 8.76578Z" fill="currentColor"/>
</svg>
