<svg width="28" height="28" viewBox="0 0 28 28" xmlns="http://www.w3.org/2000/svg">
<path d="M20.5624 13.0069L8.67907 5.58077C8.5019 5.47007 8.29832 5.40879 8.08948 5.4033C7.88063 5.39781 7.67412 5.4483 7.49137 5.54954C7.30861 5.65078 7.15628 5.79908 7.05018 5.97905C6.94407 6.15902 6.88806 6.3641 6.88795 6.57302V21.4261C6.88705 21.6355 6.94242 21.8412 7.04827 22.0218C7.15411 22.2024 7.30655 22.3512 7.48962 22.4528C7.67269 22.5543 7.87968 22.6047 8.08893 22.5988C8.29818 22.5929 8.502 22.5309 8.67907 22.4193L20.5624 14.9931C20.7308 14.8878 20.8696 14.7414 20.9658 14.5677C21.062 14.3939 21.1125 14.1986 21.1125 14C21.1125 13.8014 21.062 13.6061 20.9658 13.4324C20.8696 13.2587 20.7308 13.1123 20.5624 13.0069Z" fill="currentColor"/>
</svg>
