<svg width="25" height="24" viewBox="0 0 25 24" fill="none" xmlns="http://www.w3.org/2000/svg">
<path d="M12.3648 2.01108C7.26166 2.2521 3.23456 6.46768 3.25004 11.5353C3.25476 13.0788 3.63042 14.5356 4.29309 15.8229L3.27565 20.7217C3.22061 20.9867 3.46156 21.2188 3.72695 21.1564L8.56641 20.0191C9.80974 20.6335 11.2063 20.9883 12.6843 21.0107C17.9002 21.0897 22.2493 16.9816 22.4119 11.8098C22.5862 6.26595 17.9734 1.74614 12.3648 2.01108ZM18.1393 16.769C16.722 18.1748 14.8377 18.949 12.8333 18.949C11.6597 18.949 10.5361 18.6878 9.49365 18.1728L8.8197 17.8397L5.85261 18.537L6.47717 15.5297L6.14513 14.8848C5.60394 13.8335 5.32954 12.6966 5.32954 11.5059C5.32954 9.51773 6.11006 7.64862 7.52733 6.24275C8.93194 4.84949 10.8471 4.06268 12.8335 4.06268C14.8378 4.06272 16.7221 4.83693 18.1394 6.24271C19.5566 7.64853 20.3372 9.51764 20.3372 11.5057C20.3372 13.4762 19.5439 15.3758 18.1393 16.769Z" fill="currentColor"/>
<path d="M17.706 13.6139L15.6911 13.0875C15.4262 13.0184 15.1409 13.0867 14.9479 13.2656L14.4552 13.7223C14.2474 13.9149 13.9322 13.9768 13.6572 13.8756C12.704 13.5247 10.699 11.9028 10.187 11.0916C10.0393 10.8576 10.0637 10.565 10.2451 10.3515L10.6752 9.84521C10.8438 9.64684 10.8794 9.38043 10.7679 9.15112L9.92019 7.40687C9.71714 6.98909 9.13031 6.86747 8.74694 7.16245C8.18459 7.59515 7.51736 8.25269 7.43625 8.98114C7.29324 10.2655 7.89868 11.8844 10.1881 13.8284C12.8331 16.0743 14.9512 16.371 16.3302 16.0671C17.1124 15.8947 17.7375 15.2038 18.132 14.638C18.401 14.2522 18.1886 13.74 17.706 13.6139Z" fill="currentColor"/>
</svg>
