<svg width="25" height="33" viewBox="0 0 25 33" fill="none" xmlns="http://www.w3.org/2000/svg">
<path d="M12.5 33C12.5 33 25 21.2726 25 12.375C25 9.09295 23.683 5.94532 21.3388 3.62455C18.9946 1.30379 15.8152 0 12.5 0C9.18479 0 6.00537 1.30379 3.66116 3.62455C1.31696 5.94532 4.94004e-08 9.09295 0 12.375C0 21.2726 12.5 33 12.5 33ZM12.5 18.5625C10.8424 18.5625 9.25268 17.9106 8.08058 16.7502C6.90848 15.5898 6.25 14.016 6.25 12.375C6.25 10.734 6.90848 9.16016 8.08058 7.99978C9.25268 6.8394 10.8424 6.1875 12.5 6.1875C14.1576 6.1875 15.7473 6.8394 16.9194 7.99978C18.0915 9.16016 18.75 10.734 18.75 12.375C18.75 14.016 18.0915 15.5898 16.9194 16.7502C15.7473 17.9106 14.1576 18.5625 12.5 18.5625Z" fill="#382312"/>
</svg>
