<svg width="140" height="32" viewBox="0 0 140 32" fill="none" xmlns="http://www.w3.org/2000/svg">
<g id="Group">
<path id="Vector" d="M98.3447 7.91471C98.3426 12.2701 98.3346 15.7808 98.3265 15.7201C98.3164 15.6593 98.2982 15.5134 98.2861 15.3959C98.1266 13.9455 97.5209 12.5517 96.5477 11.3849C96.3055 11.0952 95.8027 10.6009 95.51 10.3659C95.2374 10.1451 94.6801 9.77236 94.3732 9.60422C93.6827 9.22337 92.9095 8.94989 92.1079 8.80606C91.5083 8.69667 91.7384 8.70072 86.9695 8.70072C82.0431 8.70072 82.4085 8.69059 81.7019 8.83442C79.9029 9.19501 78.2917 10.2079 77.1712 11.6847C76.307 12.8212 75.8023 14.1075 75.6488 15.558C75.6105 15.9307 75.6105 24.2202 75.6488 24.6031C75.776 25.8409 76.1778 26.9915 76.838 28.0044C78.1464 30.012 80.2603 31.276 82.6165 31.4604C82.99 31.4887 90.9692 31.4887 91.3427 31.4604C93.8786 31.2619 96.15 29.7932 97.3957 27.5466C97.8944 26.6492 98.2074 25.6322 98.3083 24.593C98.3204 24.4654 98.3346 24.356 98.3386 24.3519C98.3426 24.3479 98.3467 25.9482 98.3467 27.9112V31.4806H102.132H105.918V15.7403V-1.90735e-05H102.132H98.3467L98.3447 7.91471ZM98.3426 20.0795L98.3366 23.8738H90.7653H83.1939L83.1879 20.0795L83.1838 16.2873H90.7653H98.3467L98.3426 20.0795Z" fill="#2B1A0D"/>
<path id="Vector_2" d="M0 20.0856V31.4807H3.78567H7.57134V23.884V16.2873H11.2964H15.0215V23.884V31.4807H18.8072H22.5929V23.884V16.2873H26.3785H30.1642V23.884V31.4807H33.9499H37.7355L37.7295 23.5132C37.7234 14.7862 37.7335 15.4912 37.6124 14.8692C37.0511 11.9541 34.8564 9.62449 31.9914 8.90533C31.3352 8.74125 30.78 8.6825 30.0128 8.69668C29.4071 8.70883 29.1971 8.73112 28.6701 8.83646C25.6517 9.44014 23.2511 11.9035 22.714 14.9503C22.6635 15.24 22.6131 15.6674 22.611 15.8416L22.609 15.9733L22.5929 15.8619C22.5828 15.8011 22.5666 15.637 22.5525 15.4972C22.5202 15.1488 22.4616 14.8166 22.3667 14.4357C21.6641 11.6158 19.3645 9.41178 16.5257 8.83443C15.9584 8.71896 15.7423 8.70073 15.0215 8.70073C14.3189 8.70073 14.1029 8.71896 13.5678 8.8243C11.2439 9.28213 9.25318 10.8237 8.20733 12.9751C7.96505 13.4755 7.80151 13.9333 7.65008 14.535L7.57538 14.8389L7.57336 11.7637L7.57134 8.6906H3.78567H0V20.0856Z" fill="#2B1A0D"/>
<path id="Vector_3" d="M48.4061 8.71288C46.3487 8.90331 44.4125 9.97089 43.1344 11.6199C42.3854 12.5862 41.8625 13.7551 41.6545 14.9199C41.5354 15.5945 41.5414 15.3048 41.5414 20.0552C41.5414 24.7044 41.5394 24.5545 41.6424 25.1703C42.0422 27.5142 43.5564 29.5703 45.6905 30.6582C46.5082 31.0755 47.3885 31.3388 48.3254 31.4442C48.5212 31.4644 49.4156 31.4705 52.9186 31.4705C57.7461 31.4705 57.415 31.4786 58.1418 31.3368C59.6056 31.0512 60.9564 30.326 62.0244 29.2523C63.2964 27.9781 64.0636 26.3372 64.2272 24.5525C64.2393 24.4127 64.2534 24.2952 64.2575 24.2912C64.2615 24.2871 64.2655 25.9016 64.2655 27.8808V31.4807H68.0512H71.8369V20.0856V8.6906H68.0512H64.2655L64.2635 12.2904C64.2615 14.2716 64.2575 15.8781 64.2534 15.8619C64.2494 15.8457 64.2332 15.6937 64.2151 15.5236C64.0354 13.7287 63.2439 12.0959 61.9416 10.8278C61.3783 10.2808 60.7989 9.86555 60.0862 9.50294C59.2402 9.07145 58.3882 8.82025 57.4453 8.72301C57.1747 8.69465 56.6215 8.6906 52.8621 8.69263C50.512 8.69465 48.5071 8.70275 48.4061 8.71288ZM64.2615 20.0795L64.2555 23.8738L56.6801 23.8799L49.1027 23.884V20.0856V16.2873H56.6841H64.2655L64.2615 20.0795Z" fill="#2B1A0D"/>
<path id="Vector_4" d="M116.488 8.72303C115.038 8.87902 113.693 9.43814 112.53 10.368C112.211 10.6232 111.63 11.2087 111.373 11.5308C110.459 12.6834 109.92 13.986 109.74 15.481C109.71 15.7444 109.706 16.1374 109.698 19.7919C109.692 23.8637 109.698 24.3661 109.764 24.8584C109.964 26.3149 110.527 27.6074 111.458 28.7398C111.715 29.0497 112.201 29.5299 112.52 29.7871C113.645 30.6927 114.885 31.2234 116.346 31.426L116.669 31.4706H124.816C133.577 31.4706 133.106 31.4766 133.728 31.3672C136.054 30.958 138.079 29.4589 139.163 27.338C139.67 26.3473 139.945 25.3101 139.993 24.1939C140.003 23.9144 140.003 23.884 139.973 23.884C139.941 23.884 139.939 23.6065 139.939 20.0857C139.939 16.5628 139.941 16.2873 139.973 16.2873C140.003 16.2873 140.005 16.2569 139.993 15.9774C139.888 13.5201 138.628 11.2877 136.577 9.93648C135.586 9.28418 134.645 8.93169 133.377 8.73722C133.159 8.7048 132.64 8.70278 124.947 8.69872C118.056 8.69467 116.708 8.69872 116.488 8.72303ZM132.347 20.0857V23.884H124.816H117.285V20.0857V16.2873H124.816H132.347V20.0857Z" fill="#2B1A0D"/>
</g>
</svg>
