<svg width="0" height="0" class="hidden">
  <symbol xmlns="http://www.w3.org/2000/svg" viewBox="0 0 10 20" id="ic_arr_hor">
    <path d="M10 1.03962L1.88843 10L10 18.9604L9.05271 20L0 10L9.05271 0L10 1.03962Z" fill="currentColor"></path>
  </symbol>
  <symbol xmlns="http://www.w3.org/2000/svg" viewBox="0 0 18 10" id="ic_arr_ver">
    <path d="M0.935659 0.5L9.00002 7.80042L17.0643 0.5L18 1.35256L9.00002 9.5L0 1.35256L0.935659 0.5Z" fill="currentColor"></path>
  </symbol>
  <symbol xmlns="http://www.w3.org/2000/svg" viewBox="0 0 9 9" id="ic_check">
    <path d="M3.44626 7.86216C3.36035 7.94857 3.24314 7.99679 3.12138 7.99679C2.99963 7.99679 2.88242 7.94857 2.79651 7.86216L0.201944 5.26717C-0.0673148 4.99792 -0.0673148 4.5613 0.201944 4.29254L0.526822 3.96758C0.796165 3.69832 1.23228 3.69832 1.50154 3.96758L3.12138 5.58751L7.49844 1.21037C7.76779 0.941108 8.20432 0.941108 8.47316 1.21037L8.79804 1.53533C9.0673 1.80459 9.0673 2.24112 8.79804 2.50996L3.44626 7.86216Z" fill="currentColor"></path>
  </symbol>
  <symbol xmlns="http://www.w3.org/2000/svg" viewBox="0 0 22 22" id="ic_close">
    <path d="M18.7778 3.22222C16.6991 1.14352 13.9398 0 11 0C8.06019 0 5.30093 1.14352 3.22222 3.22222C1.14352 5.30093 0 8.06019 0 11C0 13.9398 1.14352 16.6991 3.22222 18.7778C5.30093 20.8565 8.06019 22 11 22C13.9398 22 16.6991 20.8565 18.7778 18.7778C20.8565 16.6991 22 13.9398 22 11C22 8.06019 20.8565 5.30093 18.7778 3.22222ZM17.8935 17.8935C16.0509 19.7361 13.6019 20.75 11 20.75C8.39815 20.75 5.94907 19.7361 4.10648 17.8935C0.305555 14.0926 0.305555 7.90741 4.10648 4.10648C5.94907 2.26389 8.39815 1.25 11 1.25C13.6019 1.25 16.0509 2.26389 17.8935 4.10648C21.6944 7.90741 21.6944 14.0926 17.8935 17.8935Z" fill="currentColor"></path>
    <path d="M15.8472 6.15278C15.6018 5.90741 15.2083 5.90741 14.963 6.15278L11 10.1157L7.03704 6.15278C6.79167 5.90741 6.39815 5.90741 6.15278 6.15278C5.90741 6.39815 5.90741 6.79167 6.15278 7.03704L10.1157 11L6.15278 14.963C5.90741 15.2083 5.90741 15.6019 6.15278 15.8472C6.27315 15.9676 6.43518 16.0324 6.59259 16.0324C6.75 16.0324 6.91204 15.9722 7.03241 15.8472L10.9954 11.8843L14.9583 15.8472C15.0787 15.9676 15.2407 16.0324 15.3981 16.0324C15.5602 16.0324 15.7176 15.9722 15.838 15.8472C16.0833 15.6019 16.0833 15.2083 15.838 14.963L11.8843 11L15.8472 7.03704C16.0926 6.79167 16.0926 6.39815 15.8472 6.15278Z" fill="currentColor"></path>
  </symbol>
  <symbol xmlns="http://www.w3.org/2000/svg" viewBox="0 0 14 14" id="ic_close2">
    <rect x="2.05029" y="0.636047" width="16" height="2" transform="rotate(45 2.05029 0.636047)" fill="currentColor"></rect>
    <rect x="0.635986" y="11.9498" width="16" height="2" transform="rotate(-45 0.635986 11.9498)" fill="currentColor"></rect>
  </symbol>
  <symbol xmlns="http://www.w3.org/2000/svg" viewBox="0 0 16 8" id="ic_menu">
    <rect width="16" height="2" fill="currentColor"></rect>
    <rect x="4" y="6" width="12" height="2" fill="currentColor"></rect>
  </symbol>
  <symbol xmlns="http://www.w3.org/2000/svg" viewBox="0 0 24 24" id="ic_pdf">
    <path d="M23.8631 6.49486L17.3744 0.141469C17.2821 0.0510937 17.1546 0 17.0215 0H7.3506C6.2683 0 5.38777 0.829406 5.38777 1.84884V8.3077H1.46852C0.658771 8.3077 0 8.92828 0 9.69112V16.6166C0 17.3794 0.658771 18 1.46852 18H5.38777V22.1544C5.38777 23.172 6.2683 24 7.3506 24H22.0372C23.1195 24 24 23.1725 24 22.1554V6.81492C24 6.69558 23.9509 6.58088 23.8631 6.49486ZM17.1429 1.24598L22.4695 6.46153H17.1429V1.24598ZM1.46852 17.0769C1.1989 17.0769 0.979625 16.8705 0.979625 16.6166V9.69112C0.979625 9.4373 1.19895 9.23077 1.46852 9.23077H14.6948C14.9644 9.23077 15.1837 9.4373 15.1837 9.69112V16.6166C15.1837 16.8705 14.9643 17.0769 14.6948 17.0769H1.46852ZM23.0204 22.1554C23.0204 22.6635 22.5793 23.0769 22.0371 23.0769H7.3506C6.80843 23.0769 6.36734 22.6631 6.36734 22.1544V18H14.6948C15.5045 18 16.1633 17.3794 16.1633 16.6166V9.69112C16.1633 8.92828 15.5045 8.3077 14.6948 8.3077H6.36734V1.84884C6.36734 1.33833 6.80843 0.923062 7.3506 0.923062H16.1632V6.92306C16.1632 7.17797 16.3826 7.38459 16.653 7.38459H23.0204V22.1554Z" fill="currentColor"></path>
    <path d="M5.85559 11.7137C5.69297 11.5145 5.49111 11.3851 5.25004 11.3256C5.09315 11.2859 4.75643 11.2661 4.23983 11.2661H2.87662V15.2307H3.72611V13.7352H4.28002C4.6646 13.7352 4.95829 13.7162 5.1611 13.6783C5.31033 13.6477 5.45718 13.5851 5.60164 13.4904C5.7461 13.3957 5.86519 13.2655 5.95896 13.0996C6.05273 12.9338 6.09959 12.7291 6.09959 12.4858C6.09954 12.1702 6.0182 11.9129 5.85559 11.7137ZM5.12807 12.8049C5.064 12.8932 4.9755 12.9581 4.86258 12.9996C4.74966 13.0411 4.52586 13.0618 4.19103 13.0618H3.72611V11.9368H4.13651C4.44263 11.9368 4.64639 11.9458 4.74777 11.9638C4.88551 11.9873 4.99938 12.0459 5.08927 12.1396C5.17921 12.2334 5.22418 12.3524 5.22418 12.4966C5.22423 12.6138 5.19214 12.7165 5.12807 12.8049Z" fill="currentColor"></path>
    <path d="M10.1834 12.3492C10.0915 12.0959 9.95758 11.8818 9.78158 11.7069C9.60559 11.532 9.39412 11.4103 9.14734 11.3418C8.96368 11.2913 8.69675 11.2661 8.34664 11.2661H6.79401V15.2307H8.39256C8.70635 15.2307 8.95696 15.2027 9.14445 15.1468C9.39512 15.0711 9.59409 14.9656 9.74139 14.8304C9.93654 14.6519 10.0867 14.4185 10.192 14.13C10.2781 13.8938 10.3211 13.6125 10.3211 13.2862C10.3211 12.9148 10.2752 12.6025 10.1834 12.3492ZM9.35681 13.9772C9.29941 14.1548 9.22529 14.2824 9.1344 14.3599C9.04352 14.4374 8.92921 14.4924 8.79146 14.5248C8.68625 14.5501 8.51498 14.5627 8.27775 14.5627H7.6435V11.9368H8.02519C8.37147 11.9368 8.60397 11.9494 8.72257 11.9747C8.88135 12.0071 9.01243 12.0693 9.11575 12.1613C9.21907 12.2533 9.29941 12.3812 9.35681 12.5453C9.41422 12.7093 9.44292 12.9446 9.44292 13.2511C9.44292 13.5576 9.41422 13.7996 9.35681 13.9772Z" fill="currentColor"></path>
    <path d="M13.9315 11.9368V11.2661H11.0472V15.2307H11.8967V13.5459H13.6531V12.8752H11.8967V11.9368H13.9315Z" fill="currentColor"></path>
  </symbol>
  <symbol fill="none" xmlns="http://www.w3.org/2000/svg" viewBox="0 0 18 18" id="ic_phone">
    <path d="M13.6846 11.9075C13.0965 11.3269 12.3624 11.3269 11.7781 11.9075C11.3323 12.3495 10.8866 12.7915 10.4484 13.2409C10.3285 13.3645 10.2274 13.3908 10.0813 13.3084C9.79288 13.151 9.48574 13.0237 9.20857 12.8514C7.91633 12.0386 6.83384 10.9936 5.87496 9.81743C5.39926 9.23311 4.97601 8.60759 4.6801 7.90341C4.62017 7.76108 4.63141 7.66744 4.74752 7.55132C5.19325 7.12058 5.62774 6.67859 6.06598 6.23661C6.67652 5.62232 6.67652 4.90316 6.06224 4.28513C5.71389 3.93304 5.36555 3.58845 5.01721 3.23636C4.65763 2.87678 4.30179 2.51345 3.93847 2.15762C3.3504 1.58453 2.61626 1.58453 2.03194 2.16136C1.58246 2.60335 1.15172 3.05657 0.694749 3.49106C0.271493 3.89184 0.0579922 4.38252 0.0130446 4.9556C-0.0581224 5.88826 0.170361 6.76849 0.492485 7.62624C1.15172 9.40167 2.15555 10.9786 3.37288 12.4244C5.01721 14.3796 6.97992 15.9266 9.27599 17.0428C10.3098 17.5447 11.381 17.9305 12.5459 17.9941C13.3475 18.0391 14.0442 17.8368 14.6023 17.2113C14.9843 16.7843 15.4151 16.3948 15.8196 15.9865C16.4189 15.3797 16.4227 14.6455 15.8271 14.0462C15.1154 13.3308 14.4 12.6192 13.6846 11.9075Z" fill="currentColor"></path>
    <path d="M12.9694 8.92199L14.3515 8.68601C14.1342 7.41625 13.5349 6.26634 12.6248 5.3524C11.6621 4.38978 10.4448 3.78298 9.10386 3.5957L8.90909 4.98533C9.94663 5.13141 10.8905 5.59961 11.6359 6.345C12.3401 7.04917 12.8008 7.94063 12.9694 8.92199Z" fill="currentColor"></path>
    <path d="M15.1306 2.9141C13.535 1.31846 11.5161 0.310887 9.28745 0L9.09268 1.38963C11.0179 1.65931 12.7634 2.53205 14.1418 3.90669C15.449 5.21392 16.3068 6.86574 16.6177 8.68237L17.9998 8.4464C17.6365 6.34135 16.6439 4.43108 15.1306 2.9141Z" fill="currentColor"></path>
  </symbol>
  <symbol xmlns="http://www.w3.org/2000/svg" viewBox="0 0 18 18" id="ic_phone2">
    <path d="M13.6962 10.9114C13.3725 10.5704 12.982 10.388 12.5682 10.388C12.1578 10.388 11.764 10.567 11.4269 10.9081L10.3724 11.9718C10.2856 11.9245 10.1988 11.8806 10.1154 11.8367C9.99527 11.7759 9.88181 11.7185 9.78503 11.6577C8.79722 11.0229 7.89952 10.1955 7.03853 9.12505C6.62138 8.5915 6.34106 8.14237 6.13749 7.68648C6.41114 7.43322 6.66476 7.16982 6.91171 6.91655C7.00516 6.82199 7.0986 6.72406 7.19204 6.62951C7.89285 5.92036 7.89285 5.00184 7.19204 4.29269L6.28099 3.37079C6.17753 3.26611 6.07074 3.15805 5.97063 3.04999C5.7704 2.84062 5.56016 2.6245 5.34324 2.42188C5.01953 2.0977 4.63242 1.92548 4.22528 1.92548C3.81815 1.92548 3.42436 2.0977 3.09064 2.42188C3.0873 2.42526 3.0873 2.42526 3.08397 2.42864L1.94933 3.58692C1.52217 4.01916 1.27855 4.54596 1.22516 5.15718C1.14507 6.14324 1.43206 7.06176 1.65232 7.66285C2.19294 9.13856 3.00054 10.5062 4.20526 11.9718C5.66695 13.7379 7.42564 15.1326 9.43462 16.1153C10.2022 16.4833 11.2267 16.919 12.3713 16.9932C12.4414 16.9966 12.5148 17 12.5816 17C13.3525 17 13.9999 16.7197 14.5071 16.1625C14.5105 16.1558 14.5171 16.1524 14.5205 16.1456C14.694 15.9329 14.8943 15.7404 15.1045 15.5344C15.248 15.396 15.3948 15.2508 15.5383 15.0988C15.8687 14.751 16.0422 14.3457 16.0422 13.9304C16.0422 13.5117 15.8654 13.1098 15.5283 12.7721L13.6962 10.9114ZM14.8909 14.4673C14.8876 14.4673 15.2114 14.1181 14.8909 14.4673C14.7608 14.6091 14.6273 14.7375 14.4838 14.8793C14.2669 15.0887 14.0466 15.3082 13.8397 15.5547C13.5026 15.9194 13.1055 16.0916 12.5849 16.0916C12.5349 16.0916 12.4815 16.0916 12.4314 16.0882C11.4403 16.0241 10.5192 15.6324 9.82841 15.298C7.93957 14.3728 6.28099 13.0591 4.90273 11.3943C3.76475 10.0064 3.00388 8.7232 2.49996 7.34542C2.1896 6.50457 2.07614 5.84945 2.1262 5.23147C2.15957 4.83637 2.30974 4.50881 2.58673 4.22853L3.72471 3.077C3.88823 2.92166 4.06176 2.83724 4.23196 2.83724C4.4422 2.83724 4.6124 2.96556 4.71919 3.07363C4.72252 3.077 4.72586 3.08038 4.7292 3.08376C4.93277 3.27624 5.12632 3.47548 5.32989 3.68822C5.43334 3.79628 5.54013 3.90435 5.64692 4.01578L6.55797 4.93768C6.91171 5.29563 6.91171 5.62657 6.55797 5.98452C6.46119 6.08245 6.36775 6.18038 6.27097 6.27494C5.99065 6.56535 5.72368 6.8355 5.43334 7.0989C5.42667 7.10566 5.41999 7.10903 5.41666 7.11579C5.12966 7.4062 5.18305 7.68986 5.24312 7.88234C5.24646 7.89248 5.2498 7.90261 5.25313 7.91274C5.49007 8.49357 5.82379 9.04063 6.33104 9.69237L6.33438 9.69575C7.25544 10.8439 8.22656 11.7388 9.2978 12.4243C9.43462 12.5121 9.57478 12.583 9.70827 12.6505C9.82841 12.7113 9.94187 12.7687 10.0387 12.8295C10.052 12.8363 10.0653 12.8464 10.0787 12.8532C10.1922 12.9106 10.299 12.9376 10.4091 12.9376C10.6861 12.9376 10.8596 12.762 10.9163 12.7046L12.0576 11.5497C12.1711 11.4349 12.3513 11.2964 12.5616 11.2964C12.7685 11.2964 12.9387 11.4281 13.0421 11.5429C13.0455 11.5463 13.0455 11.5463 13.0488 11.5497L14.8876 13.4103C15.2313 13.7548 15.2313 14.1094 14.8909 14.4673Z" fill="currentColor"></path>
    <path d="M14.8909 14.4673C14.8876 14.4673 15.2114 14.1181 14.8909 14.4673ZM14.8909 14.4673C14.7608 14.6091 14.6273 14.7375 14.4838 14.8793C14.2669 15.0887 14.0466 15.3082 13.8397 15.5547C13.5026 15.9194 13.1055 16.0916 12.5849 16.0916C12.5349 16.0916 12.4815 16.0916 12.4314 16.0882C11.4403 16.0241 10.5192 15.6324 9.82841 15.298C7.93957 14.3728 6.28099 13.0591 4.90273 11.3943C3.76475 10.0064 3.00388 8.7232 2.49996 7.34542C2.1896 6.50457 2.07614 5.84945 2.1262 5.23147C2.15957 4.83637 2.30974 4.50881 2.58673 4.22853L3.72471 3.077C3.88823 2.92166 4.06176 2.83724 4.23196 2.83724C4.4422 2.83724 4.6124 2.96556 4.71919 3.07363C4.72252 3.077 4.72586 3.08038 4.7292 3.08376C4.93277 3.27624 5.12632 3.47548 5.32989 3.68822C5.43334 3.79628 5.54013 3.90435 5.64692 4.01578L6.55797 4.93768C6.91171 5.29563 6.91171 5.62657 6.55797 5.98452C6.46119 6.08245 6.36775 6.18038 6.27097 6.27494C5.99065 6.56535 5.72368 6.8355 5.43334 7.0989C5.42667 7.10566 5.41999 7.10903 5.41666 7.11579C5.12966 7.4062 5.18305 7.68986 5.24312 7.88234C5.24646 7.89248 5.2498 7.90261 5.25313 7.91274C5.49007 8.49357 5.82379 9.04062 6.33104 9.69237L6.33438 9.69575C7.25544 10.8439 8.22656 11.7388 9.2978 12.4243C9.43462 12.5121 9.57478 12.583 9.70827 12.6505C9.82841 12.7113 9.94187 12.7687 10.0387 12.8295C10.052 12.8363 10.0653 12.8464 10.0787 12.8532C10.1922 12.9106 10.299 12.9376 10.4091 12.9376C10.6861 12.9376 10.8596 12.762 10.9163 12.7046L12.0576 11.5497C12.1711 11.4349 12.3513 11.2964 12.5616 11.2964C12.7685 11.2964 12.9387 11.4281 13.0421 11.5429C13.0455 11.5463 13.0455 11.5463 13.0488 11.5497L14.8876 13.4103C15.2313 13.7548 15.2313 14.1094 14.8909 14.4673ZM13.6962 10.9114C13.3725 10.5704 12.982 10.388 12.5682 10.388C12.1578 10.388 11.764 10.567 11.4269 10.9081L10.3724 11.9718C10.2856 11.9245 10.1988 11.8806 10.1154 11.8367C9.99527 11.7759 9.88181 11.7185 9.78503 11.6577C8.79722 11.0229 7.89952 10.1955 7.03853 9.12505C6.62138 8.5915 6.34106 8.14237 6.13749 7.68648C6.41114 7.43322 6.66476 7.16982 6.91171 6.91655C7.00516 6.82199 7.0986 6.72406 7.19204 6.62951C7.89285 5.92036 7.89285 5.00184 7.19204 4.29269L6.28099 3.37079C6.17753 3.26611 6.07074 3.15805 5.97063 3.04999C5.7704 2.84062 5.56016 2.6245 5.34324 2.42188C5.01953 2.0977 4.63242 1.92548 4.22528 1.92548C3.81815 1.92548 3.42436 2.0977 3.09064 2.42188C3.0873 2.42526 3.0873 2.42526 3.08397 2.42864L1.94933 3.58692C1.52217 4.01916 1.27855 4.54596 1.22516 5.15718C1.14507 6.14324 1.43206 7.06176 1.65232 7.66285C2.19294 9.13855 3.00054 10.5062 4.20526 11.9718C5.66695 13.7379 7.42564 15.1326 9.43462 16.1153C10.2022 16.4833 11.2267 16.919 12.3713 16.9932C12.4414 16.9966 12.5148 17 12.5816 17C13.3525 17 13.9999 16.7197 14.5071 16.1625C14.5105 16.1558 14.5171 16.1524 14.5205 16.1456C14.694 15.9329 14.8943 15.7404 15.1045 15.5344C15.248 15.396 15.3948 15.2508 15.5383 15.0988C15.8687 14.751 16.0422 14.3457 16.0422 13.9304C16.0422 13.5117 15.8654 13.1098 15.5283 12.7721L13.6962 10.9114Z" stroke="currentColor"></path>
    <path id="Vector_2" d="M9.7451 4.80588C10.6194 4.95447 11.4137 5.3732 12.0478 6.01481C12.6818 6.65643 13.0923 7.46013 13.2425 8.34488C13.2792 8.56776 13.4694 8.7231 13.6863 8.7231C13.713 8.7231 13.7364 8.71972 13.7631 8.71634C14.01 8.67582 14.1735 8.43944 14.1335 8.18954C13.9533 7.11906 13.4527 6.14314 12.6885 5.36983C11.9243 4.59651 10.9598 4.08998 9.90195 3.90762C9.655 3.8671 9.42473 4.03257 9.38135 4.27908C9.33797 4.5256 9.49815 4.76536 9.7451 4.80588Z" fill="currentColor" stroke="currentColor"></path>
    <path id="Vector_3" d="M16.9933 8.05794C16.6963 6.29519 15.8753 4.69116 14.6139 3.41469C13.3524 2.13821 11.7673 1.3075 10.0252 1.00695C9.78163 0.96305 9.55136 1.1319 9.50798 1.37841C9.46794 1.6283 9.63146 1.86131 9.87841 1.90521C11.4335 2.17198 12.8518 2.91828 13.9798 4.0563C15.1078 5.19769 15.842 6.63288 16.1056 8.20652C16.1423 8.4294 16.3325 8.58473 16.5494 8.58473C16.5761 8.58473 16.5995 8.58136 16.6262 8.57798C16.8698 8.54083 17.0367 8.30445 16.9933 8.05794Z" fill="currentColor" stroke="currentColor"></path>
  </symbol>
  <symbol fill="none" xmlns="http://www.w3.org/2000/svg" viewBox="0 0 25 24" id="ic_telegram">
    <path d="M22.5 3.63785L19.4949 20.2508C19.4949 20.2508 19.0748 21.4028 17.9188 20.8498L10.9529 15.0038C11.8892 14.081 19.1527 6.92073 19.4704 6.59603C19.9613 6.0935 19.6567 5.79443 19.0859 6.17448L8.35713 13.6452L4.21791 12.1173C4.21791 12.1173 3.56627 11.8638 3.50355 11.3108C3.44046 10.7578 4.23906 10.4583 4.23906 10.4583L21.1132 3.20002C21.1132 3.20002 22.5 2.53189 22.5 3.63785Z" fill="currentColor"></path>
  </symbol>
  <symbol xmlns="http://www.w3.org/2000/svg" viewBox="0 0 25 24" id="ic_viber">
    <path d="M21.8993 13.5905C22.4961 8.56716 21.6126 5.39577 20.019 3.96135L20.0198 3.96052C17.4477 1.51092 8.76117 1.14836 5.68396 4.07054C4.30205 5.49996 3.8153 7.59783 3.76195 10.195C3.70861 12.7929 3.64527 17.6596 8.18023 18.9798H8.1844L8.18023 20.996C8.18023 20.996 8.14939 21.8128 8.67115 21.977C9.26792 22.1704 9.53797 21.7912 11.3941 19.5741C14.498 19.8433 16.8818 19.2265 17.1526 19.1365C17.7794 18.9265 21.3259 18.4572 21.8993 13.5905ZM11.7 18.1555C11.7 18.1555 9.73551 20.6051 9.12457 21.2411C8.92453 21.4478 8.70533 21.4286 8.70866 21.0185C8.70866 20.7493 8.72366 17.6713 8.72366 17.6713C4.87882 16.5694 5.10552 12.4253 5.1472 10.2575C5.18887 8.08875 5.58561 6.3126 6.75582 5.11656C9.45546 2.58528 17.071 3.15121 19.0113 4.97486C21.3834 7.07773 20.5391 13.0188 20.5441 13.2213C20.0565 17.2837 17.1827 17.5412 16.6542 17.7171C16.4284 17.7921 14.3321 18.3314 11.7 18.1555Z" fill="currentColor"></path>
    <path id="Vector_2" d="M12.7869 5.59229C12.466 5.59229 12.466 6.09237 12.7869 6.09654C15.2765 6.11571 17.3269 7.85102 17.3494 11.0341C17.3494 11.37 17.8412 11.3658 17.837 11.0299H17.8362C17.8095 7.60014 15.5708 5.61146 12.7869 5.59229Z" fill="currentColor"></path>
    <path id="Vector_3" d="M16.0617 10.5068C16.0542 10.8385 16.5451 10.8544 16.5493 10.5185C16.5901 8.6273 15.4241 7.06952 13.2328 6.90533C12.9119 6.88199 12.8786 7.38624 13.1987 7.40958C15.099 7.55377 16.1 8.85067 16.0617 10.5068Z" fill="currentColor"></path>
    <path id="Vector_4" d="M15.5365 12.6579C15.1247 12.4195 14.7055 12.5679 14.5321 12.8021L14.1696 13.2713C13.9854 13.5097 13.6411 13.478 13.6411 13.478C11.129 12.8137 10.4572 10.1849 10.4572 10.1849C10.4572 10.1849 10.4264 9.82904 10.6564 9.63817L11.1098 9.2631C11.3366 9.08307 11.4799 8.64966 11.249 8.22375C10.6323 7.10939 10.218 6.72516 10.0072 6.4301C9.78545 6.15255 9.45205 6.09004 9.10533 6.27758H9.09783C8.37686 6.69932 7.58756 7.48862 7.8401 8.30127C8.27101 9.15808 9.06282 11.8894 11.5866 13.9531C12.7726 14.9291 14.6496 15.9293 15.4465 16.1602L15.454 16.1718C16.2391 16.4335 17.0026 15.6134 17.4101 14.8708V14.8649C17.591 14.5057 17.531 14.1656 17.2668 13.9431C16.7984 13.4863 16.0916 12.9821 15.5365 12.6579Z" fill="currentColor"></path>
    <path id="Vector_5" d="M13.5762 8.76578C14.3772 8.81245 14.7656 9.23086 14.8073 10.0902C14.8223 10.4261 15.3098 10.4027 15.2948 10.0668C15.2415 8.94498 14.6564 8.31986 13.6029 8.26152C13.282 8.24235 13.252 8.74661 13.5762 8.76578Z" fill="currentColor"></path>
  </symbol>
  <symbol xmlns="http://www.w3.org/2000/svg" viewBox="0 0 28 28" id="ic_video_play">
    <path d="M20.5624 13.0069L8.67907 5.58077C8.5019 5.47007 8.29832 5.40879 8.08948 5.4033C7.88063 5.39781 7.67412 5.4483 7.49137 5.54954C7.30861 5.65078 7.15628 5.79908 7.05018 5.97905C6.94407 6.15902 6.88806 6.3641 6.88795 6.57302V21.4261C6.88705 21.6355 6.94242 21.8412 7.04827 22.0218C7.15411 22.2024 7.30655 22.3512 7.48962 22.4528C7.67269 22.5543 7.87968 22.6047 8.08893 22.5988C8.29818 22.5929 8.502 22.5309 8.67907 22.4193L20.5624 14.9931C20.7308 14.8878 20.8696 14.7414 20.9658 14.5677C21.062 14.3939 21.1125 14.1986 21.1125 14C21.1125 13.8014 21.062 13.6061 20.9658 13.4324C20.8696 13.2587 20.7308 13.1123 20.5624 13.0069Z" fill="currentColor"></path>
  </symbol>
  <symbol fill="none" xmlns="http://www.w3.org/2000/svg" viewBox="0 0 25 24" id="ic_whatsapp">
    <path d="M12.3648 2.01108C7.26166 2.2521 3.23456 6.46768 3.25004 11.5353C3.25476 13.0788 3.63042 14.5356 4.29309 15.8229L3.27565 20.7217C3.22061 20.9867 3.46156 21.2188 3.72695 21.1564L8.56641 20.0191C9.80974 20.6335 11.2063 20.9883 12.6843 21.0107C17.9002 21.0897 22.2493 16.9816 22.4119 11.8098C22.5862 6.26595 17.9734 1.74614 12.3648 2.01108ZM18.1393 16.769C16.722 18.1748 14.8377 18.949 12.8333 18.949C11.6597 18.949 10.5361 18.6878 9.49365 18.1728L8.8197 17.8397L5.85261 18.537L6.47717 15.5297L6.14513 14.8848C5.60394 13.8335 5.32954 12.6966 5.32954 11.5059C5.32954 9.51773 6.11006 7.64862 7.52733 6.24275C8.93194 4.84949 10.8471 4.06268 12.8335 4.06268C14.8378 4.06272 16.7221 4.83693 18.1394 6.24271C19.5566 7.64853 20.3372 9.51764 20.3372 11.5057C20.3372 13.4762 19.5439 15.3758 18.1393 16.769Z" fill="currentColor"></path>
    <path d="M17.706 13.6139L15.6911 13.0875C15.4262 13.0184 15.1409 13.0867 14.9479 13.2656L14.4552 13.7223C14.2474 13.9149 13.9322 13.9768 13.6572 13.8756C12.704 13.5247 10.699 11.9028 10.187 11.0916C10.0393 10.8576 10.0637 10.565 10.2451 10.3515L10.6752 9.84521C10.8438 9.64684 10.8794 9.38043 10.7679 9.15112L9.92019 7.40687C9.71714 6.98909 9.13031 6.86747 8.74694 7.16245C8.18459 7.59515 7.51736 8.25269 7.43625 8.98114C7.29324 10.2655 7.89868 11.8844 10.1881 13.8284C12.8331 16.0743 14.9512 16.371 16.3302 16.0671C17.1124 15.8947 17.7375 15.2038 18.132 14.638C18.401 14.2522 18.1886 13.74 17.706 13.6139Z" fill="currentColor"></path>
  </symbol>
</svg>